<svg width="512" height="512" viewBox="0 0 512 512" fill="none" xmlns="http://www.w3.org/2000/svg">
<rect width="512" height="512" rx="60" fill="white"/>
<path d="M245.372 264.238V330.356L102.256 292.009V225.89L245.372 264.238Z" fill="white"/>
<path d="M245.372 352.42V418.49L102.256 380.119V314.001L245.372 352.42Z" fill="white"/>
<path d="M379.308 123.823L256.012 156.918L132.715 123.823L256.012 90.7997L379.308 123.823Z" fill="white"/>
<path d="M245.372 176.08V242.174L102.256 203.827V137.709L245.372 176.08Z" fill="white"/>
<path d="M431 132.001V374.411L266.652 418.49V176.08L431 132.001Z" fill="#30CCCC"/>
<path d="M431 132.001V123.823C431 119.002 427.765 114.806 423.14 113.559L258.744 69.4556C256.947 68.9759 255.053 68.9759 253.256 69.4556L88.8603 113.559C84.2112 114.782 81 119.002 81 123.823V388.297C81 393.117 84.2352 397.314 88.8603 398.561L253.256 442.664C254.143 442.88 255.077 443 256.012 443C256.899 443 257.833 442.88 258.744 442.664L423.14 398.561C427.765 397.338 431 393.117 431 388.297V374.411L266.652 418.466V176.08L431 132.001ZM245.372 418.49L102.256 380.119V314L245.372 352.396V418.49ZM245.372 330.356L102.256 291.985V225.89L245.372 264.238V330.356ZM245.372 242.174L102.256 203.827V137.708L245.372 176.08V242.174ZM256.012 156.918L132.715 123.823L256.012 90.7996L379.309 123.847L256.012 156.918Z" fill="#003040"/>
<path d="M431 220.183V198.119L348.826 220.159V242.222L431 220.183Z" fill="#003040"/>
<path d="M431 308.293V286.253L348.826 308.293V330.332L431 308.293Z" fill="#003040"/>
</svg>
